<?xml version="1.0" encoding="utf-8"?>
<!-- Generator: Adobe Illustrator 24.1.2, SVG Export Plug-In . SVG Version: 6.00 Build 0)  -->
<svg version="1.1" id="Layer_1" xmlns="http://www.w3.org/2000/svg" xmlns:xlink="http://www.w3.org/1999/xlink" x="0px" y="0px"
	 viewBox="0 0 320 320" style="enable-background:new 0 0 320 320;" xml:space="preserve">
<style type="text/css">
	.st0{fill:#EAE4DD;}
	.st1{fill:#3FB3A2;}
</style>
<g>
	<path class="st0" d="M236.17,115.98l40.97-59.37c-6.5,2.73-12.94,5.84-19.26,9.31c-39.15,21.49-68.37,54.05-85.91,91.64
		c-9.04,19.36-14.98,40.06-17.57,61.27h36.78l-3.54-11.28v-26.15l16.83-23.87l28.04,61.31H287L236.17,115.98z"/>
</g>
<g>
	<g>
		<path class="st0" d="M140.31,56.6H87.67L37.59,218.83h40.42l9.74-31.97h43.46l2.33,8.14c2.03-6.84,4.42-13.58,7.17-20.18V57.87
			L140.31,56.6z M96.21,151.44l13.13-47.06l13.13,47.06H96.21z"/>
	</g>
</g>
<g>
	<path class="st1" d="M232.39,56.6l-19.53,29.28c5.52-3.79,11.27-7.34,17.26-10.62c15.2-8.36,30.97-14.54,47.02-18.66H232.39z"/>
</g>
<g>
	<g>
		<path class="st1" d="M57.3,243.71v30.31H46.27v-30.31h-7.86v-9.55h26.74v9.55H57.3z"/>
	</g>
	<g>
		<path class="st1" d="M102.2,274.02H89.3l-5.54-15.24h-3.67v15.24H68.46v-39.86h19.8c4.37,0,7.76,1.08,10.18,3.23
			c2.42,2.15,3.62,4.99,3.62,8.51c0,2.3-0.44,4.33-1.33,6.09c-0.89,1.76-2.68,3.31-5.39,4.66L102.2,274.02z M80.09,250.25h4.97
			c1.46,0,2.64-0.32,3.53-0.96c0.89-0.64,1.33-1.59,1.33-2.83c0-2.55-1.49-3.83-4.47-3.83h-5.36V250.25z"/>
	</g>
	<g>
		<path class="st1" d="M128.59,274.02l-2.14-7.85H116.3l-2.28,7.85h-9.44l11.7-39.86h12.3l11.89,39.86H128.59z M118.27,257.46h6.13
			l-3.07-11.56L118.27,257.46z"/>
	</g>
	<g>
		<path class="st1" d="M143.96,274.02v-39.86h14.66c6.37,0,11.13,1.99,14.3,5.96c3.17,3.97,4.75,8.57,4.75,13.78
			c0,5.96-1.7,10.8-5.1,14.53c-3.4,3.73-7.81,5.59-13.23,5.59H143.96z M155.59,264.85h3.03c1.92,0,3.55-0.98,4.87-2.95
			c1.32-1.97,1.99-4.64,1.99-8.03c0-2.9-0.59-5.4-1.76-7.5c-1.18-2.1-2.87-3.15-5.1-3.15h-3.03V264.85z"/>
	</g>
	<g>
		<path class="st1" d="M211.09,264.5v9.52h-28.52v-39.86h28.52v9.2h-17.1v5.78h13.83v8.85h-13.83v6.51H211.09z"/>
	</g>
	<g>
		<path class="st1" d="M249.44,274.02h-12.9l-5.54-15.24h-3.67v15.24H215.7v-39.86h19.8c4.37,0,7.76,1.08,10.18,3.23
			c2.42,2.15,3.62,4.99,3.62,8.51c0,2.3-0.44,4.33-1.33,6.09c-0.89,1.76-2.68,3.31-5.39,4.66L249.44,274.02z M227.34,250.25h4.97
			c1.46,0,2.64-0.32,3.53-0.96c0.89-0.64,1.33-1.59,1.33-2.83c0-2.55-1.49-3.83-4.47-3.83h-5.36V250.25z"/>
	</g>
	<g>
		<path class="st1" d="M251.02,262.48l10.8-2.04c0.91,3.21,3.24,4.82,7,4.82c2.92,0,4.39-0.82,4.39-2.45c0-0.86-0.34-1.52-1.01-2
			c-0.68-0.48-1.88-0.9-3.62-1.27c-6.65-1.34-10.91-3.09-12.8-5.25c-1.89-2.16-2.83-4.7-2.83-7.62c0-3.76,1.36-6.88,4.07-9.38
			c2.71-2.49,6.61-3.74,11.7-3.74c7.72,0,12.82,3.26,15.3,9.78l-9.64,3.07c-1-2.67-3.03-4-6.08-4c-2.54,0-3.8,0.83-3.8,2.48
			c0,0.74,0.29,1.31,0.86,1.72c0.57,0.41,1.68,0.8,3.33,1.17c4.54,1.01,7.76,1.9,9.67,2.68s3.5,2.1,4.77,3.98s1.92,4.1,1.92,6.65
			c0,4.03-1.56,7.3-4.67,9.8c-3.11,2.5-7.19,3.75-12.25,3.75C258.89,274.63,253.19,270.58,251.02,262.48z"/>
	</g>
</g>
<g>
	<path class="st1" d="M187.65,56.6v49.73c-8.65,8.25-16.46,17.18-23.38,26.66c-9.55,13.02-17.43,27.08-23.56,41.82V56.6H187.65z"/>
</g>
</svg>
